#!OML:ASF H:\Terrain\Patient Classification 1\Animal1\Tuesday\Animal1.ASF
:FULLY-SPECIFIED
:DEGREES
1881
root 12.1683 16.4727 -12.3739 4.76589 11.6624 -1.69659
lowerback -4.47821 5.16721 5.36365
upperback -0.79103 6.68574 -2.25976
thorax 2.5664 3.40324 -4.84156
lowerneck 1.81098 7.23704 -2.29721
upperneck 33.4691 10.7574 1.65688
head 10.2029 5.0631 1.83058
rclavicle -3.3197e-014 -7.95139e-015
rhumerus -98.1128 54.6474 -114.482
rradius 97.0033
rwrist -35.206
rhand -9.29143 12.8926
rfingers 7.12502
rthumb 16.6659 -16.412
lclavicle -3.3197e-014 -7.95139e-015
lhumerus 3.43226 24.5406 9.06823
lradius 65.7373
lwrist 23.2969
lhand 54.1893 44.0599
lfingers 7.12502
lthumb 72.4182 29.9719
rfemur 0.155934 15.8665 23.0099
rtibia 11.4718
rfoot -24.4223 -40.6019
rtoes 30.5775
lfemur -11.7661 -27.8862 -4.83536
ltibia 10.649
lfoot -11.0368 7.51962
ltoes -27.6344
1882
root 12.171 16.4687 -12.3755 4.7944 11.6615 -1.6899
lowerback -4.61914 5.07955 5.28756
upperback -0.77173 6.56297 -2.18631
thorax 2.63223 3.34226 -4.72143
lowerneck 2.07001 7.09063 -2.6291
upperneck 33.4074 10.6112 1.46392
head 10.1303 4.9406 1.79148
rclavicle -8.88319e-014 7.95139e-015
rhumerus -98.3273 54.838 -114.683
rradius 97.0056
rwrist -35.2671
rhand -9.17898 13.0669
rfingers 7.12502
rthumb 16.7741 -16.2285
lclavicle -8.88319e-014 7.95139e-015
lhumerus 3.54156 25.6472 8.87425
lradius 66.2314
lwrist 23.6535
lhand 53.7817 43.7492
lfingers 7.12502
lthumb 72.2055 30.7516
rfemur 0.314498 15.9431 23.0013
rtibia 11.1674
rfoot -24.575 -40.5012
rtoes 30.8623
lfemur -11.9473 -27.9761 -4.82688
ltibia 10.9459
lfoot -10.8727 7.62481
ltoes -28.4241
1883
root 12.1731 16.4667 -12.3789 4.78204 11.6298 -1.71257
lowerback -4.59141 5.06113 5.33377
upperback -0.827663 6.53835 -2.19685
thorax 2.56199 3.32749 -4.76582
lowerneck 2.23355 6.9224 -2.69095
upperneck 33.5367 10.4292 1.29235
head 10.1633 4.83068 1.72678
rclavicle -2.64881e-014 7.55382e-015
rhumerus -98.4755 54.7351 -114.936
rradius 96.9094
rwrist -35.2769
rhand -9.7067 13.3354
rfingers 7.12502
rthumb 16.2661 -16.0023
lclavicle -2.64881e-014 7.55382e-015
lhumerus 3.94797 26.5262 8.70368
lradius 66.7006
lwrist 24.1617
lhand 53.1963 43.3813
lfingers 7.12502
lthumb 71.8886 31.903
rfemur 0.455274 15.9417 23.0307
rtibia 10.9179
rfoot -23.8905 -40.7299
rtoes 30.4643
lfemur -12.0569 -27.9272 -4.83012
ltibia 11.2023
lfoot -11.1281 7.65281
ltoes -28.3901
1884
root 12.1746 16.4674 -12.3832 4.6989 11.5953 -1.89067
lowerback -4.48066 5.05359 5.53808
upperback -0.86149 6.52367 -2.16283
thorax 2.48187 3.31907 -4.85678
lowerneck 2.21409 6.73368 -2.71816
upperneck 33.8706 10.2358 1.1348
head 10.3103 4.71352 1.67729
rclavicle -5.91012e-014 4.09496e-014
rhumerus -98.668 54.6781 -115.189
rradius 96.842
rwrist -35.2269
rhand -10.3756 13.5281
rfingers 7.12502
rthumb 15.6219 -15.8611
lclavicle -5.91012e-014 4.09496e-014
lhumerus 4.35982 27.3282 8.52819
lradius 67.2467
lwrist 24.7052
lhand 52.9716 43.2394
lfingers 7.12502
lthumb 71.7637 32.3298
rfemur 0.5704 15.8967 23.2197
rtibia 10.765
rfoot -23.4828 -40.7852
rtoes 29.9185
lfemur -12.0742 -27.8022 -4.68409
ltibia 11.3684
lfoot -11.4783 7.61016
ltoes -27.9469
1885
root 12.1749 16.4691 -12.3877 4.65126 11.5689 -1.96938
lowerback -4.48398 5.03713 5.58078
upperback -0.810584 6.49707 -2.09691
thorax 2.53014 3.30802 -4.8116
lowerneck 2.1879 6.50117 -2.86641
upperneck 34.065 10.0017 0.890685
head 10.4051 4.55679 1.60874
rclavicle -5.62188e-014 9.93923e-015
rhumerus -98.7512 54.855 -115.203
rradius 96.8493
rwrist -35.228
rhand -10.6378 13.5361
rfingers 7.12502
rthumb 15.3693 -15.8727
lclavicle -5.62188e-014 9.93923e-015
lhumerus 4.67607 28.3083 8.49271
lradius 67.9018
lwrist 25.0717
lhand 53.186 43.2509
lfingers 7.12502
lthumb 71.883 31.7987
rfemur 0.645004 15.9968 23.311
rtibia 10.6605
rfoot -23.5431 -40.7813
rtoes 30.0829
lfemur -12.107 -27.7846 -4.60582
ltibia 11.4891
lfoot -11.6112 7.57186
ltoes -27.3267
1886
root 12.174 16.4692 -12.3921 4.7075 11.5053 -1.95743
lowerback -4.59081 5.05975 5.55742
upperback -0.799089 6.5229 -2.11239
thorax 2.60429 3.32295 -4.80196
lowerneck 2.14639 6.25953 -2.96823
upperneck 34.3416 9.72101 0.778163
head 10.5292 4.39569 1.57823
rclavicle 8.75398e-014 -1.86858e-014
rhumerus -98.6424 54.9049 -115.11
rradius 96.8262
rwrist -35.2319
rhand -10.4552 13.4593
rfingers 7.12502
rthumb 15.5453 -15.9359
lclavicle 8.75398e-014 -1.86858e-014
lhumerus 5.14621 29.1666 8.52805
lradius 68.5574
lwrist 25.6248
lhand 53.0915 43.9464
lfingers 7.12502
lthumb 71.8306 32.7342
rfemur 0.568967 16.126 23.2815
rtibia 10.6473
rfoot -23.6652 -40.7544
rtoes 30.4437
lfemur -12.1825 -27.8188 -4.57606
ltibia 11.5167
lfoot -11.5614 7.65387
ltoes -27.1312
